# xmcd
#
# Track frame offsets:
#	150
#	10807
#	22797
#	37837
#	52342
#	64255
#	79932
#	97932
#	111062
#	124385
#	139235
#	151265
#	162977
#	175262
#	186650
#	197305
#	211502
#	221815
#	231012
#	242240
#
# Disc length: 3434 seconds
#
# Revision: 1
# Processed by: cddbd v1.5.1PL0 Copyright (c) Steve Scherf et al.
# Submitted via: EasyCDDAExtractor 6.2.0.3
#
DISCID=110d6814
DTITLE=Various Artist - Volume 2
DYEAR=1900
DGENRE=Country
TTITLE0=Silveira e Silverinha - Alo Goias 
TTITLE1=Estatua de Aco
TTITLE2=Boemio
TTITLE3=Sangue de Areia
TTITLE4=Aposta
TTITLE5=Revivendo o Passado
TTITLE6=Desquite
TTITLE7=Que dor e essa
TTITLE8=Rincao adorado
TTITLE9=Triste Destino
TTITLE10=Lenco branco
TTITLE11=Pode Chorar
TTITLE12= Gigante de Ferro
TTITLE13=Cantinho de Goias
TTITLE14=Peito Magoado
TTITLE15=Cabocla
TTITLE16=Tu Sofres Tambem
TTITLE17=Indio Caraja
TTITLE18=Doi Coracao
TTITLE19=Mineiro nao perde trem
EXTD=
EXTT0=
EXTT1=
EXTT2=
EXTT3=
EXTT4=
EXTT5=
EXTT6=
EXTT7=
EXTT8=
EXTT9=
EXTT10=
EXTT11=
EXTT12=
EXTT13=
EXTT14=
EXTT15=
EXTT16=
EXTT17=
EXTT18=
EXTT19=
PLAYORDER=
